<?xml version="1.0" encoding="UTF-8" standalone="no"?><!DOCTYPE svg PUBLIC "-//W3C//DTD SVG 1.1//EN" "http://www.w3.org/Graphics/SVG/1.1/DTD/svg11.dtd"><svg width="100%" height="100%" viewBox="0 0 534 534" version="1.1" xmlns="http://www.w3.org/2000/svg" xmlns:xlink="http://www.w3.org/1999/xlink" xml:space="preserve" xmlns:serif="http://www.serif.com/" style="fill-rule:evenodd;clip-rule:evenodd;stroke-linejoin:round;stroke-miterlimit:2;"><rect id="aave" x="0" y="0" width="533.333" height="533.333" style="fill:none;"/><clipPath id="_clip1"><rect x="0" y="0" width="533.333" height="533.333"/></clipPath><g clip-path="url(#_clip1)"><clipPath id="_clip2"><rect x="0" y="-0" width="533.333" height="533.333"/></clipPath><g clip-path="url(#_clip2)"><g><path d="M533.333,266.807c0,-147.542 -119.265,-266.807 -266.526,-266.807c-147.262,-0 -266.807,119.265 -266.807,266.807c0,147.541 119.265,266.806 266.807,266.806c147.541,0 266.526,-119.545 266.526,-266.806Z" style="fill:#9391f7;fill-rule:nonzero;"/><path d="M216.973,279.685c22.957,-3.64 38.355,-25.197 34.716,-48.154c-3.64,-22.957 -25.197,-38.355 -48.154,-34.716c-22.958,3.64 -38.356,25.197 -34.716,48.154c3.919,22.958 25.477,38.356 48.154,34.716Zm109.746,0c22.957,-3.64 38.355,-25.197 34.716,-48.154c-3.64,-22.957 -25.197,-38.355 -48.154,-34.716c-22.957,3.64 -38.355,25.197 -34.716,48.154c3.64,22.958 25.197,38.356 48.154,34.716Z" style="fill:#fff;fill-rule:nonzero;"/><path d="M265.127,65.232c-113.946,-0 -206.334,94.068 -206.334,209.974l52.633,-0c0,-87.07 68.312,-157.341 153.421,-157.341c85.389,0 153.421,70.551 153.421,157.341l52.633,-0c0.56,-115.906 -91.828,-209.974 -205.774,-209.974Z" style="fill:#fff;fill-rule:nonzero;"/></g></g></g></svg>