<?xml version="1.0" encoding="UTF-8" standalone="no"?><!DOCTYPE svg PUBLIC "-//W3C//DTD SVG 1.1//EN" "http://www.w3.org/Graphics/SVG/1.1/DTD/svg11.dtd"><svg width="100%" height="100%" viewBox="0 0 534 534" version="1.1" xmlns="http://www.w3.org/2000/svg" xmlns:xlink="http://www.w3.org/1999/xlink" xml:space="preserve" xmlns:serif="http://www.serif.com/" style="fill-rule:evenodd;clip-rule:evenodd;stroke-linejoin:round;stroke-miterlimit:2;"><rect id="eth" x="0" y="0" width="533.333" height="533.333" style="fill:none;"/><clipPath id="_clip1"><rect x="0" y="0" width="533.333" height="533.333"/></clipPath><g clip-path="url(#_clip1)"><g><circle cx="266.667" cy="266.667" r="266.667" style="fill:#edeff0;"/><g id="Layer_x0020_1"><g id="_1421394342400"><g><path d="M266.625,33.333l-3.131,10.635l-0,308.567l3.131,3.124l143.23,-84.665l-143.23,-237.661Z" style="fill:#343434;fill-rule:nonzero;"/><path d="M266.625,33.333l-143.235,237.661l143.235,84.665l-0,-322.326Z" style="fill:#8c8c8c;fill-rule:nonzero;"/><path d="M266.625,382.777l-1.765,2.152l0,109.916l1.765,5.151l143.318,-201.84l-143.318,84.621Z" style="fill:#3c3c3b;fill-rule:nonzero;"/><path d="M266.625,499.996l-0,-117.219l-143.235,-84.621l143.235,201.84Z" style="fill:#8c8c8c;fill-rule:nonzero;"/><path d="M266.625,355.659l143.23,-84.665l-143.23,-65.105l-0,149.77Z" style="fill:#141414;fill-rule:nonzero;"/><path d="M123.39,270.994l143.235,84.665l-0,-149.77l-143.235,65.105Z" style="fill:#393939;fill-rule:nonzero;"/></g></g></g></g></g></svg>