<?xml version="1.0" encoding="UTF-8" standalone="no"?><!DOCTYPE svg PUBLIC "-//W3C//DTD SVG 1.1//EN" "http://www.w3.org/Graphics/SVG/1.1/DTD/svg11.dtd"><svg width="100%" height="100%" viewBox="0 0 534 534" version="1.1" xmlns="http://www.w3.org/2000/svg" xmlns:xlink="http://www.w3.org/1999/xlink" xml:space="preserve" xmlns:serif="http://www.serif.com/" style="fill-rule:evenodd;clip-rule:evenodd;stroke-linejoin:round;stroke-miterlimit:2;"><rect id="mkr" x="0" y="0" width="533.333" height="533.333" style="fill:none;"/><clipPath id="_clip1"><rect x="0" y="0" width="533.333" height="533.333"/></clipPath><g clip-path="url(#_clip1)"><g id="Layer_2"><g id="Layer_1-2"><circle cx="266.667" cy="266.667" r="266.667" style="fill:url(#_Linear2);"/><path d="M135.413,346.667l0,-125.511l95.183,71.635l-0,53.876l24.293,-0l-0,-58.934c-0.009,-4.436 -2.101,-8.62 -5.645,-11.289l-115.431,-86.906c-2.451,-1.821 -5.426,-2.805 -8.48,-2.805c-7.777,0 -14.186,6.379 -14.222,14.156l0,145.778l24.302,-0Zm263.236,-0l-0,-125.511l-95.182,71.635l-0,53.876l-24.294,-0l0,-58.934c0.009,-4.436 2.101,-8.62 5.645,-11.289l115.431,-86.871c2.452,-1.821 5.426,-2.805 8.48,-2.805c7.764,0 14.167,6.357 14.222,14.121l0,145.778l-24.302,-0Z" style="fill:#fff;fill-rule:nonzero;"/></g></g></g><defs><linearGradient id="_Linear2" x1="0" y1="0" x2="1" y2="0" gradientUnits="userSpaceOnUse" gradientTransform="matrix(3.26572e-14,533.333,-533.333,3.26572e-14,266.667,-2.84217e-12)"><stop offset="0" style="stop-color:#4fa89b;stop-opacity:1"/><stop offset="1" style="stop-color:#6acebb;stop-opacity:1"/></linearGradient></defs></svg>